<svg viewBox="0 0 500 500" xmlns="http://www.w3.org/2000/svg" xmlns:xlink="http://www.w3.org/1999/xlink" width="100%" id="blobSvg">
  <path id="blob" d="M447.5,276Q410,302,417.5,339.5Q425,377,396.5,394.5Q368,412,329,392.5Q290,373,270,383.5Q250,394,220,414Q190,434,167.5,414Q145,394,117.5,380Q90,366,91,333.5Q92,301,82,275.5Q72,250,64,218.5Q56,187,89.5,172.5Q123,158,137,136Q151,114,169,85Q187,56,218.5,50.5Q250,45,267,96Q284,147,292,164Q300,181,333,173.5Q366,166,386,182.5Q406,199,445.5,224.5Q485,250,447.5,276Z" fill="none" stroke-width="7px" stroke="#fdcb6e"></path>
</svg>